<svg width="348" height="446" viewBox="0 0 348 446" fill="none" xmlns="http://www.w3.org/2000/svg">
<g filter="url(#filter0_d)">
<path d="M338 243.989C338 366.778 264.575 436 174 436C83.4253 436 10 366.778 10 243.989C10 121.2 83.4253 10 174 10C264.575 10 338 121.2 338 243.989Z" fill="white"/>
</g>
<g filter="url(#filter1_i)">
<path d="M93.2 198.6V249H81.536V228.336H58.64V249H46.976V198.6H58.64V218.472H81.536V198.6H93.2ZM138.316 238.2H114.916L110.452 249H98.5004L120.964 198.6H132.484L155.02 249H142.78L138.316 238.2ZM134.644 229.344L126.652 210.048L118.66 229.344H134.644ZM168.158 208.104H152.03V198.6H195.95V208.104H179.822V249H168.158V208.104ZM225.643 249.864C220.507 249.864 215.851 248.76 211.675 246.552C207.547 244.296 204.283 241.2 201.883 237.264C199.531 233.28 198.355 228.792 198.355 223.8C198.355 218.808 199.531 214.344 201.883 210.408C204.283 206.424 207.547 203.328 211.675 201.12C215.851 198.864 220.531 197.736 225.715 197.736C230.083 197.736 234.019 198.504 237.523 200.04C241.075 201.576 244.051 203.784 246.451 206.664L238.963 213.576C235.555 209.64 231.331 207.672 226.291 207.672C223.171 207.672 220.387 208.368 217.939 209.76C215.491 211.104 213.571 213 212.179 215.448C210.835 217.896 210.163 220.68 210.163 223.8C210.163 226.92 210.835 229.704 212.179 232.152C213.571 234.6 215.491 236.52 217.939 237.912C220.387 239.256 223.171 239.928 226.291 239.928C231.331 239.928 235.555 237.936 238.963 233.952L246.451 240.864C244.051 243.792 241.075 246.024 237.523 247.56C233.971 249.096 230.011 249.864 225.643 249.864ZM300.552 198.6V249H288.888V228.336H265.992V249H254.328V198.6H265.992V218.472H288.888V198.6H300.552Z" fill="white"/>
<path d="M93.2 198.6V249H81.536V228.336H58.64V249H46.976V198.6H58.64V218.472H81.536V198.6H93.2ZM138.316 238.2H114.916L110.452 249H98.5004L120.964 198.6H132.484L155.02 249H142.78L138.316 238.2ZM134.644 229.344L126.652 210.048L118.66 229.344H134.644ZM168.158 208.104H152.03V198.6H195.95V208.104H179.822V249H168.158V208.104ZM225.643 249.864C220.507 249.864 215.851 248.76 211.675 246.552C207.547 244.296 204.283 241.2 201.883 237.264C199.531 233.28 198.355 228.792 198.355 223.8C198.355 218.808 199.531 214.344 201.883 210.408C204.283 206.424 207.547 203.328 211.675 201.12C215.851 198.864 220.531 197.736 225.715 197.736C230.083 197.736 234.019 198.504 237.523 200.04C241.075 201.576 244.051 203.784 246.451 206.664L238.963 213.576C235.555 209.64 231.331 207.672 226.291 207.672C223.171 207.672 220.387 208.368 217.939 209.76C215.491 211.104 213.571 213 212.179 215.448C210.835 217.896 210.163 220.68 210.163 223.8C210.163 226.92 210.835 229.704 212.179 232.152C213.571 234.6 215.491 236.52 217.939 237.912C220.387 239.256 223.171 239.928 226.291 239.928C231.331 239.928 235.555 237.936 238.963 233.952L246.451 240.864C244.051 243.792 241.075 246.024 237.523 247.56C233.971 249.096 230.011 249.864 225.643 249.864ZM300.552 198.6V249H288.888V228.336H265.992V249H254.328V198.6H265.992V218.472H288.888V198.6H300.552Z" fill="url(#paint0_linear)"/>
</g>
<defs>
<filter id="filter0_d" x="0" y="0" width="348" height="446" filterUnits="userSpaceOnUse" color-interpolation-filters="sRGB">
<feFlood flood-opacity="0" result="BackgroundImageFix"/>
<feColorMatrix in="SourceAlpha" type="matrix" values="0 0 0 0 0 0 0 0 0 0 0 0 0 0 0 0 0 0 127 0"/>
<feOffset/>
<feGaussianBlur stdDeviation="5"/>
<feColorMatrix type="matrix" values="0 0 0 0 0 0 0 0 0 0 0 0 0 0 0 0 0 0 0.25 0"/>
<feBlend mode="normal" in2="BackgroundImageFix" result="effect1_dropShadow"/>
<feBlend mode="normal" in="SourceGraphic" in2="effect1_dropShadow" result="shape"/>
</filter>
<filter id="filter1_i" x="46.976" y="197.736" width="257.576" height="56.128" filterUnits="userSpaceOnUse" color-interpolation-filters="sRGB">
<feFlood flood-opacity="0" result="BackgroundImageFix"/>
<feBlend mode="normal" in="SourceGraphic" in2="BackgroundImageFix" result="shape"/>
<feColorMatrix in="SourceAlpha" type="matrix" values="0 0 0 0 0 0 0 0 0 0 0 0 0 0 0 0 0 0 127 0" result="hardAlpha"/>
<feOffset dx="4" dy="4"/>
<feGaussianBlur stdDeviation="4"/>
<feComposite in2="hardAlpha" operator="arithmetic" k2="-1" k3="1"/>
<feColorMatrix type="matrix" values="0 0 0 0 0 0 0 0 0 0 0 0 0 0 0 0 0 0 0.25 0"/>
<feBlend mode="normal" in2="shape" result="effect1_innerShadow"/>
</filter>
<linearGradient id="paint0_linear" x1="-12.5" y1="74.5" x2="359" y2="388" gradientUnits="userSpaceOnUse">
<stop stop-color="#FE5454"/>
<stop offset="1" stop-color="#7B2F66"/>
</linearGradient>
</defs>
</svg>
